<?xml version="1.0" standalone="no"?>
<!DOCTYPE svg PUBLIC "-//W3C//DTD SVG 20010904//EN"
 "http://www.w3.org/TR/2001/REC-SVG-20010904/DTD/svg10.dtd">
<svg version="1.0" xmlns="http://www.w3.org/2000/svg"
 width="260.000000pt" height="260.000000pt" viewBox="0 0 260.000000 260.000000"
 preserveAspectRatio="xMidYMid meet">
<metadata>
Created by potrace 1.14, written by Peter Selinger 2001-2017
</metadata>
<g transform="translate(0.000000,260.000000) scale(0.100000,-0.100000)"
fill="#000000" stroke="none">
<path d="M1906 2395 c-12 -9 -15 -15 -7 -15 11 0 11 -3 1 -15 -7 -8 -9 -15 -5
-15 4 0 1 -8 -6 -17 -10 -11 -10 -14 -1 -9 6 4 12 5 12 2 0 -2 3 -11 6 -20 3
-9 1 -16 -6 -16 -6 0 -8 6 -4 13 4 6 3 8 -1 4 -12 -10 -15 -38 -4 -31 12 7 11
-3 -1 -26 -6 -11 -6 -21 -1 -24 11 -7 2 -46 -10 -46 -8 0 -6 -22 7 -55 7 -20
7 -20 -12 0 -10 12 -18 19 -17 16 2 -2 -3 -11 -10 -19 -6 -9 -7 -13 -2 -10 6
4 19 -1 30 -9 20 -15 20 -15 -1 -9 -20 6 -22 3 -20 -28 1 -19 -3 -32 -8 -29
-5 3 -6 0 -4 -8 3 -8 -2 -20 -11 -27 -15 -11 -15 -12 0 -7 9 4 16 0 16 -9 0
-8 -6 -12 -15 -9 -11 5 -12 2 -4 -14 9 -15 8 -20 -3 -20 -8 0 -12 4 -9 8 2 4
-1 11 -8 15 -7 4 -10 4 -6 -1 4 -4 2 -15 -5 -23 -8 -11 -9 -14 0 -9 8 5 11 1
10 -12 -1 -16 -4 -18 -16 -8 -11 9 -13 9 -8 0 8 -13 -12 -63 -25 -63 -4 0 -8
-4 -8 -10 0 -21 18 -9 30 20 7 17 17 30 22 30 7 0 6 -5 -1 -13 -6 -8 -8 -17
-4 -20 3 -4 1 -7 -6 -7 -7 0 -10 -4 -6 -9 3 -5 -4 -12 -14 -16 -11 -3 -18 -12
-15 -20 3 -7 0 -16 -7 -21 -8 -5 -10 -3 -4 6 5 9 4 11 -4 6 -9 -6 -9 -11 -1
-21 10 -11 8 -13 -10 -10 -14 3 -20 0 -17 -8 6 -16 -12 -49 -23 -42 -5 3 -5
-7 -1 -22 9 -32 -12 -86 -22 -59 -4 9 1 20 11 25 9 6 12 11 6 11 -19 0 -42
-34 -38 -57 3 -18 -1 -23 -19 -23 -18 0 -19 -2 -7 -10 14 -9 12 -11 -20 -14
-8 0 -16 -8 -16 -16 -1 -8 -2 -20 -3 -27 0 -7 -9 -10 -18 -7 -10 3 -7 -2 7
-10 19 -12 21 -15 8 -16 -10 0 -18 -6 -18 -14 0 -7 -7 -19 -15 -26 -8 -7 -12
-17 -8 -23 3 -6 1 -7 -6 -3 -8 5 -7 13 4 29 8 12 15 26 15 32 0 5 -10 -7 -23
-28 -13 -21 -26 -35 -30 -32 -4 3 -5 2 -2 -2 3 -3 -1 -13 -8 -21 -6 -9 -7 -13
-2 -10 6 4 17 3 25 -2 10 -6 3 -8 -20 -7 -29 2 -34 -1 -32 -17 2 -10 -1 -15
-7 -12 -5 4 -13 1 -17 -5 -4 -7 -3 -9 4 -5 6 4 10 -1 9 -13 -1 -13 -5 -17 -12
-11 -6 5 -18 2 -30 -7 -19 -15 -19 -15 4 -8 16 5 21 4 17 -4 -4 -6 -14 -11
-22 -11 -8 0 -12 -4 -9 -10 3 -5 2 -10 -4 -10 -5 0 -12 6 -14 13 -3 7 -6 4 -6
-6 -1 -10 -5 -16 -9 -13 -5 3 -9 -2 -9 -10 0 -10 4 -11 11 -4 5 5 15 10 20 10
6 0 0 -7 -12 -16 -19 -13 -25 -14 -39 -2 -14 11 -16 11 -8 -2 15 -24 14 -39
-1 -33 -8 3 -14 -1 -14 -11 0 -9 -5 -16 -11 -16 -5 0 -7 6 -3 13 5 8 2 7 -9
-2 -10 -8 -15 -16 -13 -19 3 -2 -6 -13 -19 -24 -14 -11 -25 -24 -25 -30 0 -6
9 0 20 13 10 13 19 21 20 17 0 -15 -33 -46 -45 -41 -7 2 -16 -1 -21 -8 -5 -8
-3 -10 6 -4 9 6 11 4 6 -4 -5 -7 -15 -10 -24 -6 -14 5 -14 3 1 -13 14 -15 14
-19 2 -19 -8 0 -13 3 -11 6 2 3 -3 12 -10 19 -12 11 -14 10 -10 -11 3 -19 -1
-26 -15 -30 -10 -3 -19 0 -19 6 0 6 -3 7 -6 4 -4 -4 -2 -13 5 -20 9 -11 8 -17
-3 -26 -11 -9 -16 -9 -22 0 -5 8 -3 9 6 4 9 -5 11 -4 6 3 -11 18 -56 -15 -49
-35 4 -11 2 -14 -5 -9 -7 4 -15 1 -18 -8 -3 -9 -10 -13 -15 -10 -9 5 -30 -36
-23 -47 2 -3 -2 -6 -9 -6 -7 0 -21 -4 -32 -7 -11 -4 -7 0 8 9 16 9 26 19 23
22 -3 3 -12 0 -21 -7 -8 -7 -15 -9 -15 -4 0 5 -5 1 -11 -9 -5 -9 -8 -21 -4
-26 3 -5 0 -13 -6 -17 -8 -4 -9 -3 -5 4 5 8 0 11 -14 9 -22 -4 -42 -26 -34
-38 2 -4 -1 -11 -7 -15 -7 -4 -9 -3 -6 3 4 6 0 13 -7 16 -10 4 -14 0 -11 -13
3 -13 -1 -17 -11 -13 -9 3 -14 0 -12 -8 2 -7 -3 -13 -10 -14 -8 0 -21 -9 -29
-20 -13 -16 -15 -17 -10 -2 4 9 2 17 -3 17 -6 0 -10 -5 -10 -11 0 -5 -4 -8 -9
-4 -5 3 -12 1 -15 -4 -4 -5 -1 -13 5 -17 8 -5 9 -3 4 6 -6 9 -4 11 4 6 7 -5
10 -11 6 -14 -9 -9 -45 -10 -39 0 3 4 0 8 -5 8 -6 0 -11 -6 -11 -14 0 -7 -12
-21 -26 -31 -15 -9 -24 -13 -21 -8 3 5 -4 9 -16 10 -12 0 -16 -1 -9 -4 6 -3
12 -12 11 -21 0 -12 -2 -13 -6 -4 -4 10 -9 7 -17 -9 -6 -12 -18 -24 -26 -27
-9 -3 -8 2 5 13 18 15 18 16 2 11 -10 -3 -21 -6 -23 -6 -2 0 -4 -8 -4 -17 0
-15 -2 -15 -9 -4 -8 12 -12 12 -25 2 -13 -11 -16 -11 -16 -1 0 8 -3 11 -6 7
-3 -3 -3 -11 1 -17 5 -8 11 -7 23 2 10 7 14 8 10 4 -4 -5 -2 -16 4 -25 10 -13
10 -14 -1 -4 -8 7 -23 8 -41 3 -16 -5 -32 -5 -36 -2 -5 4 -2 -1 5 -11 16 -21
8 -23 -12 -2 -13 13 -16 13 -21 -1 -3 -8 -2 -12 4 -9 5 3 8 -3 7 -14 -1 -17
-3 -17 -22 -5 -19 12 -22 12 -22 -1 0 -8 4 -12 9 -9 15 9 8 -3 -9 -17 -10 -8
-14 -9 -10 -2 4 6 3 14 -3 18 -5 3 -10 1 -10 -5 0 -6 -4 -9 -9 -6 -5 4 -20 1
-33 -4 -18 -9 -19 -10 -3 -7 14 3 21 -1 21 -13 0 -9 -6 -17 -13 -17 -7 0 -10
4 -7 8 2 4 -9 1 -26 -8 -17 -8 -38 -12 -47 -9 -13 5 -13 4 -4 -8 9 -11 7 -15
-8 -19 -11 -2 -25 0 -32 7 -8 6 -5 0 6 -13 l20 -24 -22 11 c-17 10 -22 9 -27
-5 -5 -12 -9 -14 -18 -5 -7 7 -17 12 -22 12 -6 0 -4 -5 4 -10 13 -9 12 -13 -9
-30 -12 -11 -27 -17 -32 -14 -5 3 -9 -1 -9 -8 0 -9 -3 -9 -10 2 -7 11 -10 11
-10 2 0 -7 -5 -10 -12 -6 -7 5 -8 3 -3 -6 6 -10 3 -12 -14 -7 -18 4 -20 3 -10
-9 9 -11 8 -14 -4 -14 -8 0 -17 3 -20 8 -2 4 -2 1 -1 -5 3 -11 -7 -17 -26 -15
-3 0 -6 -8 -6 -19 0 -18 2 -18 12 -5 6 9 14 13 17 9 4 -3 2 -11 -3 -18 -7 -8
-5 -12 5 -12 8 0 12 4 10 8 -3 3 4 9 15 12 13 3 20 0 20 -10 0 -8 5 -11 10 -8
6 4 8 11 5 16 -3 5 1 6 9 3 9 -3 13 -10 10 -16 -3 -5 4 -4 15 4 18 11 23 11
31 -2 8 -13 11 -13 22 -1 11 11 11 13 -1 6 -9 -5 -12 -4 -7 3 10 17 15 15 26
-11 7 -17 9 -18 9 -5 1 17 2 17 20 1 11 -9 17 -21 14 -26 -4 -6 -1 -7 6 -2 9
5 10 10 2 18 -15 15 -14 24 4 24 8 0 12 -4 9 -9 -3 -4 0 -8 6 -8 6 0 8 -5 4
-12 -4 -7 -3 -8 5 -4 6 4 9 12 6 17 -4 5 -1 9 4 9 6 0 11 -5 11 -11 0 -5 5 -7
10 -4 6 4 7 12 3 18 -4 7 0 6 10 -2 18 -14 23 -26 8 -17 -11 7 -8 -21 4 -31 4
-4 5 -3 2 3 -8 14 18 37 46 41 12 2 18 0 12 -4 -17 -14 -16 -33 2 -26 12 5 14
3 8 -7 -6 -9 -4 -11 4 -6 7 5 10 14 7 22 -3 8 -1 14 3 14 5 0 12 -7 15 -16 4
-10 12 -14 23 -10 9 4 20 1 25 -6 6 -10 8 -10 8 0 0 6 5 12 11 12 5 0 8 -4 4
-9 -3 -5 -1 -12 4 -15 11 -7 9 13 -2 31 -5 7 -4 13 2 13 5 0 12 -8 15 -18 3
-10 15 -18 27 -18 19 0 19 1 3 13 -10 7 -13 13 -7 13 7 0 18 -7 27 -15 15 -16
31 -21 22 -7 -2 4 4 8 15 8 10 0 19 -4 19 -9 0 -4 5 -5 12 -1 7 4 24 9 37 10
20 2 22 1 11 -6 -13 -9 -13 -10 0 -10 9 0 22 6 29 13 11 9 13 9 7 -1 -4 -6 -2
-12 4 -12 6 0 8 -5 4 -12 -4 -7 -3 -8 5 -4 6 4 9 11 6 16 -3 4 2 10 10 14 8 3
17 1 20 -4 7 -12 45 -8 45 4 0 5 7 1 16 -10 8 -10 13 -14 10 -7 -4 7 1 9 16 5
15 -4 19 -2 13 7 -6 11 -3 11 16 0 29 -15 50 -35 43 -41 -7 -8 69 -1 91 8 17
7 18 5 8 -7 -10 -13 -10 -16 2 -16 8 0 12 4 9 9 -3 4 5 6 18 4 13 -3 27 -5 31
-5 5 -1 5 -6 1 -13 -4 -7 -3 -8 5 -4 9 6 9 11 -1 24 -11 13 -10 14 7 5 11 -6
37 -13 59 -16 36 -6 37 -5 20 9 -18 14 -18 14 4 4 13 -6 28 -9 35 -7 7 2 20
-3 30 -11 16 -14 17 -14 12 0 -5 13 -2 15 14 11 11 -3 19 -8 17 -12 -3 -4 4
-7 14 -7 14 0 16 3 8 13 -8 10 -7 12 6 7 9 -3 16 -11 16 -18 0 -6 5 -4 10 4 5
8 10 10 10 4 0 -6 7 -11 15 -11 8 0 15 4 15 9 0 4 -5 8 -12 8 -6 0 -8 3 -5 7
4 3 16 -3 27 -15 23 -24 39 -30 21 -8 -10 12 -8 13 8 9 12 -3 18 -10 15 -17
-3 -6 1 -3 9 7 10 12 17 14 22 8 3 -6 15 -11 26 -11 11 0 18 4 15 8 -3 5 1 9
9 9 8 0 12 -4 10 -8 -3 -3 3 -13 12 -20 15 -12 16 -12 10 3 -3 10 -1 20 5 24
6 4 8 3 5 -3 -12 -20 19 -36 45 -23 22 11 22 10 4 -4 -12 -9 -28 -13 -39 -10
-15 5 -17 3 -11 -7 6 -12 5 -12 -9 0 -9 7 -17 10 -17 6 0 -4 -7 -2 -15 5 -9 7
-18 10 -22 6 -3 -3 -1 -6 5 -6 20 0 13 -16 -8 -17 -11 -1 -19 1 -19 5 5 31
-14 44 -24 18 -4 -10 -1 -13 9 -9 9 3 14 0 12 -8 -2 -11 35 -14 187 -16 175
-2 231 4 212 24 -5 4 -12 2 -16 -6 -6 -10 -10 -9 -15 4 -8 23 -7 33 2 18 7
-10 12 -10 27 0 14 11 15 16 5 22 -9 5 -11 4 -6 -3 4 -7 2 -12 -4 -12 -7 0
-10 6 -7 13 2 6 14 11 25 9 12 -2 22 2 22 7 0 6 5 11 11 11 5 0 7 -4 4 -10 -3
-6 1 -7 10 -3 9 3 13 9 8 12 -4 3 -9 13 -11 21 -2 8 0 12 4 8 4 -4 14 -2 22 5
9 6 13 7 9 1 -3 -6 0 -11 7 -11 9 0 12 7 8 16 -5 14 -4 14 14 1 12 -9 15 -9 7
-1 -6 7 -9 20 -6 27 3 8 0 14 -6 15 -40 4 -56 1 -53 -10 1 -7 -2 -10 -8 -6 -6
3 -8 10 -5 15 9 14 -15 23 -29 11 -9 -8 -13 -7 -13 3 0 9 9 13 24 11 13 -1 23
2 23 7 0 5 -8 8 -17 6 -10 -1 -24 1 -32 6 -10 7 -12 6 -6 -4 5 -8 3 -11 -6 -8
-8 3 -13 11 -11 17 1 7 -2 10 -8 6 -6 -3 -8 -11 -5 -16 3 -5 -1 -6 -9 -3 -9 3
-13 11 -9 18 4 6 -2 4 -12 -4 -14 -11 -19 -12 -22 -2 -3 6 -9 12 -14 12 -6 0
-7 -4 -4 -10 4 -6 -1 -7 -11 -3 -13 5 -15 3 -9 -8 7 -11 6 -12 -7 -2 -8 7 -19
9 -23 5 -5 -4 -5 -1 -1 6 4 7 11 10 16 7 5 -3 11 -1 15 4 5 9 -5 8 -58 -2 -6
-1 -12 4 -13 11 -1 6 -2 17 -3 22 0 6 -6 10 -12 10 -8 0 -9 -4 0 -13 6 -8 8
-17 4 -20 -3 -4 -12 1 -20 11 -8 9 -12 11 -8 5 4 -9 1 -11 -9 -7 -9 3 -13 11
-9 18 4 6 -2 4 -12 -4 -10 -8 -16 -10 -12 -3 4 6 3 15 -3 18 -6 4 -10 3 -9 -2
3 -19 -2 -27 -10 -15 -10 16 -82 24 -98 11 -8 -7 -15 -4 -22 9 -10 19 -9 37 4
77 4 14 2 12 -8 -5 -9 -14 -13 -28 -11 -32 3 -4 -2 -5 -11 -1 -9 3 -13 9 -8
12 4 3 13 15 19 26 6 11 16 20 22 20 6 0 18 9 25 20 13 17 17 18 33 5 16 -14
16 -13 5 7 -9 19 -9 22 3 17 8 -3 17 0 22 7 4 7 3 10 -3 6 -6 -4 -13 -1 -16 7
-3 8 1 13 11 12 10 0 16 5 14 13 -2 11 0 12 11 3 14 -12 27 -6 27 12 0 6 -5 4
-10 -4 -5 -8 -10 -10 -10 -4 0 5 5 15 12 22 9 9 9 12 -2 12 -7 0 -11 3 -8 6 4
3 17 0 30 -7 21 -11 22 -11 9 5 -12 14 -12 16 0 11 17 -6 46 11 36 22 -5 4
-12 1 -17 -7 -6 -8 -10 -10 -10 -5 0 21 18 37 31 29 12 -6 12 -5 1 8 -10 13
-9 15 13 13 14 -2 23 1 19 6 -3 5 -9 7 -13 5 -4 -3 -8 1 -8 9 0 8 4 12 9 9 4
-3 8 0 8 6 0 7 7 9 16 6 13 -5 14 -4 6 7 -15 17 3 37 32 37 17 0 18 2 6 10
-13 9 -13 11 -1 19 8 5 19 8 25 7 6 -2 8 -1 3 1 -4 3 -4 10 0 16 4 7 -1 6 -10
-2 -10 -8 -20 -12 -23 -9 -2 3 10 13 28 21 18 9 27 17 19 17 -9 0 -11 6 -6 17
4 10 8 23 8 29 0 6 6 11 14 11 9 0 10 -4 2 -13 -7 -8 -6 -14 2 -20 7 -4 9 -3
5 4 -3 6 -2 14 4 17 8 5 8 11 0 20 -8 10 -8 15 1 21 7 4 9 3 6 -3 -3 -5 0 -10
8 -10 10 0 11 5 4 19 -6 12 -6 18 1 18 5 0 10 5 10 11 0 5 -6 7 -12 3 -9 -6
-9 -3 0 9 8 9 22 19 33 22 10 4 19 11 19 16 0 6 -4 8 -9 4 -5 -3 -13 0 -17 6
-4 7 -3 9 3 6 6 -4 17 1 24 10 12 15 12 16 -5 10 -16 -6 -17 -5 -6 8 10 12 16
13 29 3 14 -12 14 -11 2 5 -12 16 -9 21 12 18 4 -1 3 8 -4 20 -10 19 -9 21 4
16 11 -4 15 -1 12 14 -2 10 -6 23 -10 28 -3 6 2 14 11 19 11 6 13 12 6 16 -7
4 -8 15 -2 30 5 13 6 27 2 32 -4 4 -1 4 6 0 13 -8 14 -6 16 34 0 14 10 30 21
37 11 7 14 12 8 13 -7 0 -12 11 -11 24 1 14 6 22 11 19 5 -3 7 0 5 8 -3 8 -11
13 -17 11 -7 -1 -10 2 -6 8 3 6 11 8 16 5 12 -8 12 8 -1 21 -7 7 -6 11 4 11 8
0 13 -3 11 -7 -2 -4 2 -7 10 -7 9 0 11 5 6 16 -4 9 -7 30 -7 46 1 17 -3 33 -9
37 -6 5 -5 8 3 8 7 0 10 5 6 12 -4 6 -3 8 4 4 6 -3 8 -19 6 -33 -3 -15 -2 -25
1 -22 16 16 14 58 -2 68 -17 10 -16 10 2 11 17 0 17 2 5 10 -14 9 -7 14 13 11
5 -1 6 3 2 9 -3 6 -10 8 -14 6 -4 -3 -8 1 -8 9 0 8 4 15 9 15 4 0 8 5 8 11 0
5 -6 7 -12 3 -10 -6 -10 -5 -1 7 9 11 9 19 2 26 -8 8 -7 13 2 18 8 6 10 4 4
-5 -6 -9 -4 -11 5 -5 10 6 9 11 -5 22 -11 7 -13 13 -7 13 7 0 12 5 12 11 0 5
-6 7 -12 3 -10 -6 -10 -4 0 8 10 13 10 17 0 21 -8 4 -7 6 5 6 19 1 23 16 5 27
-7 5 -8 2 -3 -7 5 -8 4 -10 0 -6 -11 10 -16 39 -5 32 4 -3 11 2 14 11 4 10 2
13 -6 8 -8 -5 -9 -2 -5 10 4 10 3 15 -3 11 -6 -3 -10 -1 -10 4 0 6 3 11 8 11
4 0 7 11 7 25 0 20 -4 24 -20 19 -11 -3 -15 -2 -10 3 18 14 4 99 -15 88 -11
-7 -7 22 5 32 4 4 6 3 2 -3 -3 -5 4 -21 16 -35 12 -14 18 -19 14 -12 -5 6 -6
17 -2 23 4 6 1 9 -6 8 -7 -2 -14 2 -14 7 -4 24 -18 44 -29 39 -6 -3 -2 2 8 10
18 15 18 16 2 16 -9 0 -14 5 -11 10 4 6 12 7 18 4 9 -5 9 -4 0 6 -6 7 -9 18
-7 25 3 7 1 16 -4 19 -5 3 -8 -6 -6 -19 1 -14 -2 -23 -6 -20 -5 3 -7 12 -4 20
4 9 -1 18 -11 21 -12 5 -13 9 -5 14 7 4 9 13 5 19 -5 9 -11 9 -23 -1 -14 -10
-15 -10 -5 2 9 9 9 19 2 33 -8 14 -8 18 0 13 6 -4 11 -2 11 3 0 6 -5 11 -12
11 -6 0 -3 10 8 22 10 12 13 18 7 14 -21 -12 -54 -16 -48 -5 4 5 10 7 15 4 4
-3 11 2 14 10 3 9 -1 18 -9 21 -8 4 -12 10 -9 15 3 5 10 6 16 3 7 -4 8 -2 4 4
-9 14 -7 15 -30 -3z m24 -29 c0 -2 -7 -7 -16 -10 -8 -3 -12 -2 -9 4 6 10 25
14 25 6z m-33 -211 c0 -8 -4 -12 -9 -9 -5 3 -6 10 -3 15 9 13 12 11 12 -6z
m-157 -429 c0 -3 -4 -8 -10 -11 -5 -3 -10 -1 -10 4 0 6 5 11 10 11 6 0 10 -2
10 -4z m-126 -174 c3 -5 -1 -9 -9 -9 -8 0 -15 4 -15 9 0 4 4 8 9 8 6 0 12 -4
15 -8z m-4 -26 c0 -3 -4 -8 -10 -11 -5 -3 -10 -1 -10 4 0 6 5 11 10 11 6 0 10
-2 10 -4z m325 -336 c3 -6 -1 -7 -9 -4 -18 7 -21 14 -7 14 6 0 13 -4 16 -10z
m-625 -25 c0 -12 -19 -12 -23 0 -4 9 -1 12 9 8 7 -3 14 -7 14 -8z m605 -25
c-3 -5 -11 -10 -16 -10 -6 0 -7 5 -4 10 3 6 11 10 16 10 6 0 7 -4 4 -10z
m-818 -154 c0 -8 -6 -12 -15 -9 -11 5 -11 7 0 14 7 5 13 9 14 9 0 0 1 -6 1
-14z m-176 -143 c13 -16 12 -17 -3 -4 -10 7 -18 15 -18 17 0 8 8 3 21 -13z
m532 -406 c3 -8 0 -14 -7 -14 -7 0 -13 6 -13 14 0 7 4 13 8 13 4 0 9 -6 12
-13z m-986 -149 c2 -17 0 -19 -7 -8 -5 8 -6 18 -4 22 8 12 10 10 11 -14z
m1527 14 c3 -5 -1 -9 -9 -9 -8 0 -12 4 -9 9 3 4 7 8 9 8 2 0 6 -4 9 -8z m-975
-68 c-11 -13 -55 -12 -69 2 -6 6 5 10 35 10 31 0 41 -4 34 -12z m64 8 c4 9 6
9 6 1 2 -20 -16 -24 -30 -5 -13 15 -12 16 3 4 13 -10 17 -10 21 0z m531 -40
c3 -5 -1 -9 -9 -9 -8 0 -12 4 -9 9 3 4 7 8 9 8 2 0 6 -4 9 -8z m91 -22 c3 -5
1 -10 -4 -10 -6 0 -11 5 -11 10 0 6 2 10 4 10 3 0 8 -4 11 -10z m-55 -20 c0
-5 -8 -10 -17 -10 -15 0 -16 2 -3 10 19 12 20 12 20 0z"/>
<path d="M1950 2282 c0 -5 7 -15 15 -22 8 -7 15 -9 15 -6 0 4 -7 14 -15 22 -8
9 -15 11 -15 6z"/>
<path d="M1975 2230 c-3 -6 1 -7 9 -4 18 7 21 14 7 14 -6 0 -13 -4 -16 -10z"/>
<path d="M2033 2007 c0 -8 6 -14 14 -14 9 0 10 4 2 14 -6 7 -12 13 -14 13 -1
0 -2 -6 -2 -13z"/>
<path d="M2154 1845 c-18 -15 -18 -15 0 -8 13 4 17 3 12 -5 -4 -7 -15 -12 -24
-13 -12 0 -11 -3 6 -9 12 -5 22 -12 22 -15 0 -4 -4 -3 -10 0 -6 4 -10 -11 -10
-39 0 -25 5 -48 10 -51 6 -4 8 -11 4 -16 -3 -5 -10 -7 -15 -3 -5 3 -7 9 -4 14
3 4 -3 14 -13 21 -15 12 -16 12 -6 -1 6 -8 10 -26 9 -40 -1 -14 0 -29 4 -35 3
-5 7 -21 9 -35 3 -24 3 -25 -12 -5 -15 19 -16 19 -7 -5 5 -14 15 -24 22 -22 9
2 8 -3 -4 -16 -20 -22 -22 -36 -4 -27 6 4 2 -2 -11 -14 -12 -11 -18 -22 -13
-25 5 -4 11 0 14 6 2 7 7 10 11 7 4 -4 0 -14 -9 -22 -20 -20 -19 -28 3 -20 14
5 13 3 -3 -10 -11 -8 -24 -13 -29 -10 -5 4 -6 1 -2 -5 4 -7 1 -12 -6 -12 -8 0
-9 -3 -3 -8 6 -4 10 -17 9 -29 -1 -12 2 -20 7 -17 4 2 6 11 2 19 -3 8 -1 15 5
15 16 0 7 -31 -13 -46 -10 -8 -13 -14 -7 -14 7 0 12 -5 12 -11 0 -5 -5 -7 -11
-3 -8 5 -10 -6 -7 -34 2 -29 0 -38 -8 -31 -7 6 -11 4 -11 -6 0 -8 3 -15 7 -15
3 0 6 -10 7 -21 2 -19 1 -20 -10 -5 -10 13 -12 8 -10 -31 1 -36 -1 -44 -8 -30
-6 9 -7 23 -3 30 5 7 1 7 -10 -2 -9 -8 -13 -17 -9 -20 15 -11 9 -46 -12 -63
-12 -11 -15 -17 -7 -18 10 0 10 -5 2 -20 -6 -11 -8 -20 -5 -20 3 0 1 -10 -6
-21 -9 -17 -13 -19 -20 -8 -6 10 -8 8 -6 -8 0 -12 4 -20 8 -18 3 3 4 -7 1 -21
-3 -19 -7 -22 -13 -12 -6 9 -9 6 -9 -11 0 -17 -4 -22 -16 -17 -8 3 -13 2 -9
-3 3 -5 -1 -12 -7 -15 -7 -4 -3 -4 10 -2 19 4 21 2 12 -9 -7 -8 -15 -14 -18
-13 -19 2 -23 -3 -13 -15 8 -11 5 -16 -14 -25 -17 -8 -23 -16 -18 -28 4 -11 3
-15 -5 -10 -6 3 -13 2 -16 -3 -4 -5 -1 -13 5 -17 8 -4 9 -3 5 4 -5 8 -1 10 10
5 15 -5 15 -7 0 -15 -9 -5 -13 -15 -10 -21 4 -7 4 -9 -1 -5 -4 4 -15 2 -24 -4
-13 -10 -14 -10 -3 2 15 17 16 30 1 30 -5 0 -8 -4 -4 -9 3 -5 1 -12 -3 -15 -5
-3 -8 -17 -7 -31 2 -14 -1 -23 -6 -19 -5 3 -9 0 -9 -7 0 -7 -8 -9 -21 -6 -17
4 -19 3 -10 -6 15 -15 14 -27 -4 -27 -8 0 -15 -5 -15 -11 0 -5 5 -7 12 -3 7 4
8 3 4 -5 -6 -9 -11 -9 -24 1 -13 11 -15 10 -9 -4 4 -12 1 -18 -9 -18 -8 0 -19
-11 -24 -24 -5 -13 -15 -28 -22 -32 -10 -6 -11 -5 -1 7 7 8 8 20 4 28 -6 9
-11 1 -15 -23 -7 -36 -20 -47 -29 -23 -3 6 -6 3 -6 -9 -1 -11 8 -29 19 -39 11
-10 17 -22 14 -27 -4 -6 3 -8 17 -4 13 3 18 3 12 0 -7 -3 -13 -10 -13 -15 0
-5 6 -8 13 -6 6 1 11 -4 9 -11 -1 -8 2 -11 7 -7 6 3 7 13 4 23 -4 11 2 8 16
-8 12 -14 20 -20 17 -13 -4 6 -2 14 4 18 5 3 10 0 10 -7 0 -9 10 -13 30 -12
17 1 30 -3 30 -8 0 -6 8 -5 18 3 14 11 15 11 5 -1 -13 -14 -19 -39 -6 -27 3 4
12 -1 20 -11 13 -15 13 -15 3 5 -6 13 -7 23 -1 23 5 0 11 -7 15 -15 6 -16 36
-21 36 -5 0 5 7 7 15 4 13 -5 13 -9 3 -23 -12 -14 -11 -15 5 -2 21 16 57 22
57 10 0 -5 9 -13 20 -19 16 -9 18 -8 14 5 -3 8 -10 12 -15 9 -5 -3 -9 0 -9 5
0 6 4 11 8 11 11 0 48 -40 45 -49 -1 -3 1 -8 4 -11 4 -3 3 0 0 7 -4 7 5 15 25
22 38 13 38 13 38 1 0 -5 -3 -9 -7 -9 -20 3 -33 -2 -33 -12 0 -8 4 -8 14 0 11
9 15 9 19 -1 4 -10 6 -10 6 0 1 6 10 12 21 12 11 0 20 -6 20 -12 0 -9 4 -8 10
2 6 10 10 11 10 3 0 -7 5 -13 11 -13 5 0 8 4 5 8 -2 4 4 8 15 8 10 0 19 -4 19
-9 0 -5 8 -3 17 4 11 10 14 10 9 2 -4 -7 -2 -13 3 -13 6 0 11 6 11 13 0 8 4 7
10 -3 8 -12 13 -13 30 -2 11 7 20 9 19 5 -4 -22 3 -25 17 -7 12 14 14 15 11 3
-4 -13 -1 -15 14 -12 10 3 16 10 13 15 -4 6 5 3 19 -7 17 -11 27 -13 32 -5 3
6 10 8 14 5 12 -7 8 39 -4 47 -6 5 -5 8 3 8 6 0 12 9 12 20 0 12 7 31 16 44
12 20 13 26 2 32 -7 4 -10 4 -6 -1 9 -10 -10 -35 -26 -35 -6 0 -5 4 3 9 8 5
16 17 17 26 3 20 14 33 14 17 0 -6 7 -9 15 -6 14 6 13 8 -2 21 -16 13 -16 14
-1 9 12 -3 16 0 13 15 -2 10 -7 24 -11 31 -4 7 -3 8 4 4 18 -11 14 5 -5 27
-10 11 -13 17 -7 14 7 -4 18 1 25 10 12 15 12 16 -5 9 -19 -7 -19 -6 -2 13 13
15 14 20 4 24 -10 4 -10 6 0 6 6 1 12 5 12 11 0 5 -8 7 -17 4 -14 -5 -15 -4
-4 4 8 6 10 15 5 23 -6 11 -5 12 7 2 13 -10 14 -7 11 25 -3 20 -10 41 -16 45
-7 6 -4 7 6 3 10 -3 20 -1 23 4 3 4 0 10 -7 12 -8 3 -7 6 3 10 11 4 15 -1 15
-17 0 -13 -2 -22 -6 -20 -3 2 -5 -9 -5 -24 -1 -20 4 -27 18 -28 19 -2 19 -2 1
13 -13 11 -14 14 -4 11 13 -4 15 7 16 64 0 38 -4 69 -8 69 -4 0 -8 5 -8 11 0
5 4 8 8 5 4 -2 8 4 8 14 0 10 -4 16 -8 14 -4 -3 -8 0 -8 5 0 6 4 11 9 11 4 0
8 18 7 40 0 22 -5 40 -10 40 -5 0 -2 8 5 18 11 14 10 13 -9 -2 -12 -11 -22
-24 -22 -30 0 -6 4 -5 9 2 7 11 9 10 14 -3 4 -9 3 -14 -2 -10 -11 6 -9 -14 3
-34 6 -9 5 -12 -2 -7 -6 4 -9 -3 -8 -19 2 -15 -1 -22 -7 -18 -7 4 -8 -1 -3
-13 4 -10 9 -26 11 -34 2 -8 5 -22 8 -30 2 -8 2 -11 -1 -6 -2 4 -8 3 -12 -4
-6 -9 -12 -10 -26 -1 -11 6 -14 11 -8 11 14 0 14 31 0 50 -10 13 -9 13 8 0 18
-14 19 -13 12 5 -16 41 -15 54 2 48 10 -3 7 3 -8 16 -21 18 -21 20 -5 14 l20
-6 -20 23 c-11 13 -14 20 -7 16 9 -5 12 4 12 36 0 31 -3 39 -10 28 -5 -8 -10
-10 -10 -4 0 5 5 15 12 22 9 9 9 12 0 12 -7 0 -12 5 -12 11 0 5 4 8 8 5 4 -2
8 6 8 20 0 19 -4 23 -20 18 -15 -4 -17 -3 -7 4 10 8 11 14 1 33 -11 24 -11 24
10 -1 21 -25 21 -25 10 -1 -9 18 -9 25 0 31 7 4 0 12 -20 20 -19 8 -27 16 -20
20 8 5 6 11 -5 20 -8 7 -15 17 -15 23 0 6 7 2 15 -9 18 -24 19 -7 0 26 -10 18
-10 29 -3 38 9 10 6 14 -10 19 -12 3 -25 16 -28 29 -3 13 -9 22 -13 19 -4 -2
-7 14 -7 36 1 28 -2 38 -11 35 -7 -3 -12 0 -10 7 1 7 -3 11 -9 10 -10 -2 -14
10 -15 50 0 11 -5 15 -12 10 -8 -4 -8 -1 1 9 8 10 9 18 3 22 -6 4 -8 14 -5 24
5 14 4 14 -4 2 -6 -8 -8 -18 -6 -22 3 -4 1 -8 -4 -8 -13 0 -22 36 -11 47 5 5
-1 9 -13 10 -13 1 -24 7 -26 13 -2 5 -9 7 -14 4 -7 -4 -8 -2 -4 5 6 8 12 9 20
2 9 -8 13 -7 13 3 0 10 -10 13 -31 10 -24 -3 -28 -1 -16 7 11 8 12 12 2 16 -6
2 -10 9 -6 14 3 5 -2 9 -12 9 -12 0 -14 3 -6 13 9 10 5 13 -18 11 -18 -1 -28
3 -27 10 1 6 -4 10 -10 9 -7 -2 -13 2 -13 7 0 15 16 12 30 -5 7 -8 17 -15 23
-15 5 0 -1 9 -14 21 -13 12 -23 25 -21 30 5 19 -8 8 -23 -18 l-15 -28 4 28 c5
32 6 31 -20 12z m179 -180 c-3 -9 -8 -14 -10 -11 -3 3 -2 9 2 15 9 16 15 13 8
-4z m-169 -7 c-3 -4 -9 -8 -15 -8 -5 0 -9 4 -9 8 0 5 7 9 15 9 8 0 12 -4 9 -9z
m-25 -229 c-22 -13 -31 -11 -17 5 7 8 17 12 22 9 4 -3 2 -9 -5 -14z m-94 -344
c-4 -37 -12 -40 -12 -5 0 17 4 30 8 30 4 0 6 -11 4 -25z m65 -689 c0 -2 -7 -7
-16 -10 -8 -3 -12 -2 -9 4 6 10 25 14 25 6z"/>
<path d="M2405 1568 c10 -16 22 -25 31 -21 8 3 11 10 7 16 -5 8 -8 7 -11 -1
-2 -8 -11 -4 -23 10 l-20 23 16 -27z"/>
<path d="M2035 1531 c-3 -5 -2 -12 3 -15 5 -3 9 1 9 9 0 17 -3 19 -12 6z"/>
<path d="M2444 1484 c1 -8 7 -19 12 -22 5 -4 9 -13 9 -21 0 -8 7 -16 15 -18
13 -4 13 -3 0 6 -13 9 -13 12 -1 20 11 7 9 10 -8 16 -12 3 -19 10 -16 15 3 5
1 11 -4 14 -5 4 -8 -1 -7 -10z"/>
<path d="M2510 1361 c0 -6 4 -13 10 -16 6 -3 7 1 4 9 -7 18 -14 21 -14 7z"/>
<path d="M1985 1341 c-3 -5 -2 -12 3 -15 5 -3 9 1 9 9 0 17 -3 19 -12 6z"/>
<path d="M1970 1295 c-7 -9 -10 -18 -6 -22 3 -3 6 -1 6 5 0 6 6 10 13 8 6 -1
9 -1 4 1 -4 3 -5 9 -1 14 9 15 -2 10 -16 -6z"/>
<path d="M2518 1283 c7 -3 16 -2 19 1 4 3 -2 6 -13 5 -11 0 -14 -3 -6 -6z"/>
<path d="M2573 1120 c-1 -11 2 -22 8 -25 5 -4 6 2 2 11 -5 13 -3 15 8 9 12 -8
12 -6 0 8 -17 21 -16 21 -18 -3z"/>
<path d="M1870 1018 c0 -4 4 -8 9 -8 6 0 12 4 15 8 3 5 -1 9 -9 9 -8 0 -15 -4
-15 -9z"/>
<path d="M2553 875 c0 -8 4 -12 9 -9 4 3 8 9 8 15 0 5 -4 9 -8 9 -5 0 -9 -7
-9 -15z"/>
<path d="M799 793 c-12 -16 -12 -17 2 -6 9 7 20 9 24 5 5 -4 5 -1 1 6 -9 16
-11 15 -27 -5z"/>
<path d="M1726 792 c-3 -4 4 -9 15 -9 23 -2 25 3 4 10 -8 4 -16 3 -19 -1z"/>
<path d="M2572 720 c0 -14 2 -19 5 -12 2 6 2 18 0 25 -3 6 -5 1 -5 -13z"/>
<path d="M1636 541 c-4 -6 -2 -11 3 -11 6 0 11 -5 11 -11 0 -5 -6 -7 -12 -4
-7 4 -2 -3 11 -14 12 -12 28 -18 34 -14 6 4 5 10 -5 17 -8 6 -19 19 -25 30 -7
12 -13 15 -17 7z"/>
<path d="M1490 499 c0 -5 5 -7 10 -4 6 3 10 8 10 11 0 2 -4 4 -10 4 -5 0 -10
-5 -10 -11z"/>
<path d="M1680 460 c-9 -6 -10 -10 -3 -10 6 0 15 5 18 10 8 12 4 12 -15 0z"/>
<path d="M2515 461 c-3 -5 -2 -12 3 -15 5 -3 9 1 9 9 0 17 -3 19 -12 6z"/>
<path d="M1482 430 c0 -14 2 -19 5 -12 2 6 2 18 0 25 -3 6 -5 1 -5 -13z"/>
<path d="M160 421 c-8 -6 -18 -7 -24 -4 -5 3 -6 1 -2 -5 5 -9 13 -9 27 -2 10
6 19 13 19 15 0 7 -3 6 -20 -4z"/>
<path d="M1835 421 c-3 -5 -2 -12 3 -15 5 -3 9 1 9 9 0 17 -3 19 -12 6z"/>
<path d="M1958 332 c4 -10 7 -12 10 -4 2 7 9 9 15 5 7 -3 8 -2 4 2 -14 16 -36
14 -29 -3z"/>
<path d="M366 275 c-9 -26 -7 -32 5 -12 6 10 9 21 6 23 -2 3 -7 -2 -11 -11z"/>
<path d="M770 256 c0 -2 8 -10 18 -17 15 -13 16 -12 3 4 -13 16 -21 21 -21 13z"/>
<path d="M813 233 c0 -9 4 -10 14 -2 7 6 13 12 13 14 0 1 -6 2 -13 2 -8 0 -14
-6 -14 -14z"/>
<path d="M877 235 c-8 -8 -18 -11 -22 -7 -5 4 -5 2 -1 -5 7 -13 36 -7 36 8 0
5 5 9 11 9 6 0 9 -6 6 -13 -3 -8 1 -14 8 -14 10 0 11 5 4 19 -12 22 -23 23
-42 3z"/>
<path d="M1413 165 c0 -8 4 -12 9 -9 5 3 6 10 3 15 -9 13 -12 11 -12 -6z"/>
</g>
</svg>
